<?xml version="1.0" standalone="no"?>
<!DOCTYPE svg PUBLIC "-//W3C//DTD SVG 20010904//EN"
 "http://www.w3.org/TR/2001/REC-SVG-20010904/DTD/svg10.dtd">
<svg version="1.0" xmlns="http://www.w3.org/2000/svg"
 width="700.000000pt" height="700.000000pt" viewBox="0 0 700.000000 700.000000"
 preserveAspectRatio="xMidYMid meet">
<metadata>
Created by potrace 1.14, written by Peter Selinger 2001-2017
</metadata>
<g transform="translate(0.000000,700.000000) scale(0.100000,-0.100000)"
fill="#000000" stroke="none">
<path d="M2687 6824 c-1 -1 -40 -4 -87 -8 -830 -57 -1600 -529 -2041 -1251
-183 -299 -306 -636 -354 -970 -3 -23 -7 -52 -10 -65 -22 -115 -22 -579 0
-660 2 -8 6 -33 9 -55 9 -77 47 -249 76 -351 206 -707 710 -1302 1374 -1624
l125 -60 56 -117 c201 -420 513 -780 904 -1043 92 -62 261 -160 275 -160 7 0
16 -4 22 -9 17 -17 208 -98 314 -134 134 -45 314 -91 395 -102 23 -3 52 -8 65
-10 157 -31 540 -37 711 -10 13 2 46 6 72 10 219 30 565 135 727 220 14 7 50
25 80 40 30 15 100 55 155 88 557 334 983 887 1164 1510 29 98 73 304 86 397
23 177 23 549 0 672 -3 12 -7 40 -10 63 -5 37 -8 51 -20 115 -3 14 -7 36 -10
50 -17 90 -75 279 -125 410 -83 214 -276 542 -405 687 -5 6 -28 33 -50 59 -82
97 -240 250 -346 335 -57 45 -216 159 -222 159 -3 0 -29 16 -59 35 -29 20
-118 68 -197 108 l-143 71 -48 101 c-299 639 -862 1138 -1539 1365 -123 41
-288 81 -406 100 -38 6 -81 13 -95 15 -74 11 -433 27 -443 19z m1733 -1408
c41 -3 86 -8 100 -10 14 -3 48 -7 75 -11 28 -3 68 -10 90 -15 22 -5 56 -12 75
-15 82 -14 296 -80 432 -134 31 -12 42 -34 93 -186 56 -165 89 -307 120 -515
23 -155 23 -540 0 -660 -2 -10 -6 -35 -9 -56 -41 -269 -113 -503 -229 -747
-401 -842 -1229 -1410 -2162 -1483 -150 -12 -443 -6 -535 11 -8 1 -35 6 -60
10 -25 3 -58 9 -75 11 -82 13 -262 60 -367 95 -170 57 -187 66 -199 97 -68
171 -131 390 -153 527 -2 17 -8 50 -11 75 -4 25 -9 52 -10 60 -23 123 -23 507
0 658 3 17 7 44 9 60 21 146 57 296 107 447 37 111 124 317 156 367 12 21 23
41 23 44 0 14 126 213 193 304 95 129 163 207 280 322 318 312 682 525 1118
653 47 14 97 28 110 30 13 3 58 12 99 20 99 20 195 32 305 41 50 3 91 7 92 8
5 4 262 -2 333 -8z"/>
</g>
</svg>
